<?xml version="1.0" encoding="iso-8859-1"?>
<!-- Generator: Adobe Illustrator 19.0.0, SVG Export Plug-In . SVG Version: 6.00 Build 0)  -->
<svg version="1.1" id="Capa_1" xmlns="http://www.w3.org/2000/svg" xmlns:xlink="http://www.w3.org/1999/xlink" x="0px" y="0px"
	 viewBox="0 0 417.28 417.28" style="enable-background:new 0 0 417.28 417.28;" xml:space="preserve">
<g>
	<g>
		<path d="M371.451,192l-28.16-144.384C338.171,19.968,313.595,0,284.923,0H133.371c-28.672,0-53.248,19.968-58.368,47.616
			L45.819,192c-1.024,5.632,0.512,10.752,3.584,14.848c3.584,4.096,8.192,6.144,13.312,6.144h130.048V381.44h-36.864
			c-8.704,0-16.384,6.144-18.432,15.36c-1.024,5.12,0.512,10.24,4.096,14.336c3.584,4.096,8.192,6.144,13.824,6.144h105.472
			c8.704,0,16.384-6.144,18.432-15.36c1.024-5.12-0.512-10.24-4.096-14.336c-3.584-4.096-8.192-6.144-13.824-6.144h-33.28V213.504
			h36.864v75.264c0,8.704,6.144,16.384,15.36,18.432c5.12,1.024,10.24-0.512,14.336-4.096s6.144-8.192,6.144-13.824v-75.776h54.272
			c5.12,0,10.752-2.56,13.824-6.656C370.939,203.264,372.475,197.12,371.451,192z"/>
	</g>
</g>
<g>
</g>
<g>
</g>
<g>
</g>
<g>
</g>
<g>
</g>
<g>
</g>
<g>
</g>
<g>
</g>
<g>
</g>
<g>
</g>
<g>
</g>
<g>
</g>
<g>
</g>
<g>
</g>
<g>
</g>
</svg>
